<?xml version="1.0" encoding="UTF-8" standalone="no"?>
<!-- Created with Inkscape (http://www.inkscape.org/) -->

<svg
   xmlns:dc="http://purl.org/dc/elements/1.1/"
   xmlns:cc="http://creativecommons.org/ns#"
   xmlns:rdf="http://www.w3.org/1999/02/22-rdf-syntax-ns#"
   xmlns:svg="http://www.w3.org/2000/svg"
   xmlns="http://www.w3.org/2000/svg"
   xmlns:sodipodi="http://sodipodi.sourceforge.net/DTD/sodipodi-0.dtd"
   xmlns:inkscape="http://www.inkscape.org/namespaces/inkscape"
   width="34.776997mm"
   height="25.090431mm"
   viewBox="0 0 34.776996 25.090431"
   version="1.1"
   id="svg8"
   inkscape:version="0.92.2 (5c3e80d, 2017-08-06)"
   sodipodi:docname="21 jan final v2.svg">
  <defs
     id="defs2">
    <filter
       inkscape:collect="always"
       style="color-interpolation-filters:sRGB"
       id="filter8041"
       x="-0.12212751"
       width="1.2442549"
       y="-0.10910231"
       height="1.2182046">
      <feGaussianBlur
         inkscape:collect="always"
         stdDeviation="3.4268466"
         id="feGaussianBlur8043" />
    </filter>
    <filter
       inkscape:collect="always"
       style="color-interpolation-filters:sRGB"
       id="filter8045"
       x="-0.11383806"
       width="1.2276762"
       y="-0.12068768"
       height="1.2413754">
      <feGaussianBlur
         inkscape:collect="always"
         stdDeviation="3.6206304"
         id="feGaussianBlur8047" />
    </filter>
    <filter
       inkscape:collect="always"
       style="color-interpolation-filters:sRGB"
       id="filter10007"
       x="-0.23750243"
       width="1.4750048"
       y="-0.12558378"
       height="1.2511677">
      <feGaussianBlur
         inkscape:collect="always"
         stdDeviation="0.82031161"
         id="feGaussianBlur10009" />
    </filter>
  </defs>
  <sodipodi:namedview
     id="base"
     pagecolor="#ffffff"
     bordercolor="#666666"
     borderopacity="1.0"
     inkscape:pageopacity="0.0"
     inkscape:pageshadow="2"
     inkscape:zoom="2.8"
     inkscape:cx="83.750145"
     inkscape:cy="41.954358"
     inkscape:document-units="mm"
     inkscape:current-layer="layer1"
     showgrid="false"
     inkscape:window-width="1366"
     inkscape:window-height="705"
     inkscape:window-x="-8"
     inkscape:window-y="-8"
     inkscape:window-maximized="1"
     inkscape:lockguides="false">
    <sodipodi:guide
       position="34.776998,0"
       orientation="0,131.44062"
       id="guide10031"
       inkscape:locked="false" />
    <sodipodi:guide
       position="34.776998,0"
       orientation="-94.829976,0"
       id="guide10033"
       inkscape:locked="false" />
    <sodipodi:guide
       position="36.215022,23.786989"
       orientation="0,-131.44062"
       id="guide10035"
       inkscape:locked="false" />
    <sodipodi:guide
       position="0,25.090432"
       orientation="94.829976,0"
       id="guide10037"
       inkscape:locked="false" />
  </sodipodi:namedview>
  <metadata
     id="metadata5">
    <rdf:RDF>
      <cc:Work
         rdf:about="">
        <dc:format>image/svg+xml</dc:format>
        <dc:type
           rdf:resource="http://purl.org/dc/dcmitype/StillImage" />
        <dc:title></dc:title>
      </cc:Work>
    </rdf:RDF>
  </metadata>
  <g
     inkscape:label="Layer 1"
     inkscape:groupmode="layer"
     id="layer1"
     transform="translate(-84.940735,-137.96435)">
    <flowRoot
       xml:space="preserve"
       id="flowRoot4529"
       style="font-style:normal;font-weight:normal;font-size:40px;line-height:1.25;font-family:sans-serif;letter-spacing:0px;word-spacing:0px;fill:#000000;fill-opacity:1;stroke:none"
       transform="scale(0.26458333)"><flowRegion
         id="flowRegion4531"><rect
           id="rect4533"
           width="329.28571"
           height="163.57143"
           x="335"
           y="827.51971" /></flowRegion><flowPara
         id="flowPara4535"></flowPara></flowRoot>    <g
       id="g10029"
       transform="matrix(1.0382428,0,0,1,33.871607,-37.428478)">
      <g
         transform="translate(36.459859,-16.873098)"
         id="g8053">
        <g
           aria-label="W"
           transform="matrix(0.27581475,0,0,0.2420717,-42.056111,31.248331)"
           style="font-style:normal;font-weight:normal;font-size:64px;line-height:0.25;font-family:sans-serif;letter-spacing:0px;word-spacing:0px;opacity:0.70899999;fill:#000000;fill-opacity:0.22613065;stroke:none;filter:url(#filter8045)"
           id="g7365">
          <path
             d="m 279.29687,726.10547 c -2.75,7.71875 5.8125,-17.625 0,0 -2.53125,8.1875 5.45313,23.92187 1.26563,38.39062 -5.60938,0 2.66294,-38.03348 -6.47099,-5 -1.5625,-6.5625 -13.66071,-18.12276 -17.72321,-33.96651 -2.5625,8.15625 -7.08705,24.71651 -11.4308,38.96651 h -16.59375 c -2,-7.15625 -5.42188,-18.84375 -10.26563,-35.0625 -2.84375,-8.90625 -7.04687,-21.21875 -12.60937,-36.9375 h 31.96875 c 0.65625,3.0625 1.8125,8.01563 3.46875,14.85938 l 4.96875,18.75 c 0.90625,-2.59375 2.25,-7.10938 4.03125,-13.54688 -1.46875,-5.46875 -3.34375,-12.15625 -5.625,-20.0625 h 29.0625 c 0.5,3 1.32812,7.85938 2.48437,14.57813 0.84375,4.46875 2,10.8125 3.46875,19.03125 l -8.7433,-11.26786 c 0.875,-3.625 -6.32366,17.26116 -5.16741,11.22991 z"
             style="font-style:normal;font-variant:normal;font-weight:normal;font-stretch:normal;font-size:96px;font-family:'Showcard Gothic';-inkscape-font-specification:'Showcard Gothic';fill:#000000;fill-opacity:0.22613065"
             id="path7363"
             inkscape:connector-curvature="0"
             sodipodi:nodetypes="cccccccccccccccccccc" />
        </g>
        <g
           aria-label="V"
           transform="matrix(0.26874051,0,0,0.27200121,-50.926834,-37.574556)"
           style="font-style:normal;font-weight:normal;font-size:40px;line-height:1.25;font-family:sans-serif;letter-spacing:0px;word-spacing:0px;opacity:0.70899999;fill:#000000;fill-opacity:0.22613065;stroke:none;filter:url(#filter8041)"
           id="g7369">
          <path
             d="m 337.474,865.60005 c -6.28761,19.93703 1.64514,15.13042 -4.07361,32.53667 -2.625,8.1875 -6.01562,19.64062 -10.17187,34.35937 h -16.3125 c -2.09375,-7.125 -5.59375,-18.76562 -10.5,-34.92187 -2.78125,-8.9375 -6.90625,-21.29688 -12.375,-37.07813 h 19.30384 13.83678 c 0.3125,2.96875 1.04688,7.79688 2.20313,14.48438 0.78125,3.5625 2,8.46875 3.65625,14.71875 0.875,-3.03125 4.8427,-22.60013 6.5302,-29.44388 0.78124,-3.6875 17.79054,-5.76226 21.81279,3.30315 z"
             style="font-style:normal;font-variant:normal;font-weight:normal;font-stretch:normal;font-size:96px;font-family:'Showcard Gothic';-inkscape-font-specification:'Showcard Gothic';fill:#000000;fill-opacity:0.22613065"
             id="path7367"
             inkscape:connector-curvature="0"
             sodipodi:nodetypes="ccccccccccccc" />
        </g>
      </g>
      <g
         aria-label="W"
         transform="matrix(0.26458333,0,0,0.24070732,-11.792859,16.411679)"
         style="font-style:normal;font-weight:normal;font-size:64px;line-height:0.25;font-family:sans-serif;letter-spacing:0px;word-spacing:0px;fill:#d2d1a0;fill-opacity:0.98492462;stroke:none"
         id="g4905">
        <path
           d="m 313.00344,724.17689 c -2.75,7.71875 5.8125,-17.625 0,0 -2.53125,8.1875 5.45313,23.92187 1.26563,38.39062 -5.60938,0 2.66294,-38.03348 -6.47099,-5 -1.5625,-6.5625 -9.73214,-26.33705 -13.79464,-42.1808 -2.5625,8.15625 -11.01562,32.9308 -15.35937,47.1808 h -16.59375 c -2,-7.15625 -5.42188,-18.84375 -10.26563,-35.0625 -2.84375,-8.90625 -7.04687,-21.21875 -12.60937,-36.9375 h 31.96875 c 0.65625,3.0625 1.8125,8.01563 3.46875,14.85938 l 4.96875,18.75 c 0.90625,-2.59375 7.25,-13.89509 9.03125,-20.33259 -1.46875,-5.46875 6.65625,-5.37054 4.375,-13.27679 h 14.0625 c 0.5,3 1.32812,7.85938 2.48437,14.57813 0.84375,4.46875 2,10.8125 3.46875,19.03125 l -8.7433,-11.26786 c 0.875,-3.625 -6.32366,17.26116 -5.16741,11.22991 z"
           style="font-style:normal;font-variant:normal;font-weight:normal;font-stretch:normal;font-size:96px;font-family:'Showcard Gothic';-inkscape-font-specification:'Showcard Gothic';fill:#d2d1a0;fill-opacity:0.98492462"
           id="path4903"
           inkscape:connector-curvature="0"
           sodipodi:nodetypes="cccccccccccccccccccc" />
      </g>
      <g
         id="flowRoot4504"
         style="font-style:normal;font-weight:normal;font-size:64px;line-height:0.25;font-family:sans-serif;letter-spacing:0px;word-spacing:0px;fill:#f0deb1;fill-opacity:0.98492462;stroke:none"
         transform="matrix(0.26458333,0,0,0.23955413,-11.263692,17.291068)"
         aria-label="W">
        <path
           sodipodi:nodetypes="cccccccccccccccccccc"
           inkscape:connector-curvature="0"
           id="path4545"
           style="font-style:normal;font-variant:normal;font-weight:normal;font-stretch:normal;font-size:96px;font-family:'Showcard Gothic';-inkscape-font-specification:'Showcard Gothic';fill:#f0deb1;fill-opacity:0.98492462"
           d="m 313.00344,724.17689 c -2.75,7.71875 5.8125,-17.625 0,0 -2.53125,8.1875 5.45313,23.92187 1.26563,38.39062 -5.60938,0 2.66294,-38.03348 -6.47099,-5 -1.5625,-6.5625 -9.73214,-26.33705 -13.79464,-42.1808 -2.5625,8.15625 -11.01562,32.9308 -15.35937,47.1808 h -16.59375 c -2,-7.15625 -5.42188,-18.84375 -10.26563,-35.0625 -2.84375,-8.90625 -7.04687,-21.21875 -12.60937,-36.9375 h 31.96875 c 0.65625,3.0625 1.8125,8.01563 3.46875,14.85938 l 4.96875,18.75 c 0.90625,-2.59375 7.25,-13.89509 9.03125,-20.33259 -1.46875,-5.46875 6.65625,-5.37054 4.375,-13.27679 h 14.0625 c 0.5,3 1.32812,7.85938 2.48437,14.57813 0.84375,4.46875 2,10.8125 3.46875,19.03125 l -8.7433,-11.26786 c 0.875,-3.625 -6.32366,17.26116 -5.16741,11.22991 z" />
      </g>
      <g
         aria-label="V"
         transform="matrix(0.28139501,0,0,0.2777075,-17.248422,-58.729311)"
         style="font-style:normal;font-weight:normal;font-size:40px;line-height:1.25;font-family:sans-serif;letter-spacing:0px;word-spacing:0px;fill:#00ead5;fill-opacity:1;stroke:none"
         id="g4909">
        <path
           d="m 337.474,865.60005 c -6.28761,19.93703 1.64514,15.13042 -4.07361,32.53667 -2.625,8.1875 -6.01562,19.64062 -10.17187,34.35937 h -16.3125 c -2.09375,-7.125 -5.59375,-18.76562 -10.5,-34.92187 -2.78125,-8.9375 -6.90625,-21.29688 -12.375,-37.07813 h 19.30384 13.83678 c 0.3125,2.96875 1.04688,7.79688 2.20313,14.48438 0.78125,3.5625 2,8.46875 3.65625,14.71875 0.875,-3.03125 4.8427,-22.60013 6.5302,-29.44388 0.78124,-3.6875 17.79054,-5.76226 21.81279,3.30315 z"
           style="font-style:normal;font-variant:normal;font-weight:normal;font-stretch:normal;font-size:96px;font-family:'Showcard Gothic';-inkscape-font-specification:'Showcard Gothic';fill:#00ead5;fill-opacity:1"
           id="path4907"
           inkscape:connector-curvature="0"
           sodipodi:nodetypes="ccccccccccccc" />
      </g>
      <g
         transform="translate(-0.52916667)"
         id="g4917">
        <g
           aria-label="V"
           transform="matrix(0.28139501,0,0,0.2777075,-16.190088,-58.729311)"
           style="font-style:normal;font-weight:normal;font-size:40px;line-height:1.25;font-family:sans-serif;letter-spacing:0px;word-spacing:0px;fill:#00ccfc;fill-opacity:1;stroke:none"
           id="flowRoot4537">
          <path
             d="m 340.32341,865.11884 c -3.98332,0.9515 1.43137,20.36214 -2.48799,27.09745 -7.07544,12.15896 -10.45065,25.56105 -14.6069,40.2798 h -16.3125 c -2.09375,-7.125 -5.59375,-18.76562 -10.5,-34.92187 -2.78125,-8.9375 -6.90625,-21.29688 -12.375,-37.07813 h 19.30384 13.83678 c 0.3125,2.96875 1.04688,7.79688 2.20313,14.48438 0.78125,3.5625 2,8.46875 3.65625,14.71875 0.875,-3.03125 4.8427,-22.60013 6.5302,-29.44388 0.78124,-3.6875 17.79054,-5.76226 21.81279,3.30315 0,0 -7.07728,0.60885 -11.0606,1.56035 z"
             style="font-style:normal;font-variant:normal;font-weight:normal;font-stretch:normal;font-size:96px;font-family:'Showcard Gothic';-inkscape-font-specification:'Showcard Gothic';fill:#00ccfc;fill-opacity:1"
             id="path4884"
             inkscape:connector-curvature="0"
             sodipodi:nodetypes="zsccccccccccz" />
        </g>
      </g>
      <ellipse
         ry="0.28623459"
         rx="0.44864625"
         cy="180.29639"
         cx="80.635521"
         id="path4913"
         style="opacity:1;fill:#ffffff;fill-opacity:1;stroke:none;stroke-width:0.00377357;stroke-miterlimit:4;stroke-dasharray:none;stroke-opacity:1" />
      <ellipse
         ry="0.13583505"
         rx="0.12992939"
         cy="180.29257"
         cx="80.79628"
         id="path4911"
         style="opacity:1;fill:#000000;fill-opacity:0.72864326;stroke:none;stroke-width:0.00651621;stroke-miterlimit:4;stroke-dasharray:none;stroke-opacity:1" />
      <ellipse
         style="opacity:1;fill:#000000;fill-opacity:1;stroke:none;stroke-width:0.00651621;stroke-miterlimit:4;stroke-dasharray:none;stroke-opacity:1"
         id="ellipse8299"
         cx="80.842216"
         cy="180.30927"
         rx="0.12992939"
         ry="0.13583505" />
      <path
         sodipodi:nodetypes="ccccc"
         inkscape:connector-curvature="0"
         id="rect9650"
         d="m 177.81949,-33.364372 14.61502,-0.495076 0.14611,3.077106 -14.07754,1.988816 z"
         style="opacity:0.206;fill:#e2fdfd;fill-opacity:0.67336683;stroke:none;stroke-width:0.00426528;stroke-miterlimit:4;stroke-dasharray:none;stroke-opacity:0.66331661;filter:url(#filter10007)"
         transform="matrix(0.19542473,0.9807187,-0.98371259,-0.17974855,0,1.4699824)" />
    </g>
  </g>
</svg>
