<?xml version="1.0" standalone="no"?>
<!DOCTYPE svg PUBLIC "-//W3C//DTD SVG 20010904//EN"
 "http://www.w3.org/TR/2001/REC-SVG-20010904/DTD/svg10.dtd">
<svg version="1.0" xmlns="http://www.w3.org/2000/svg"
 width="984.000000pt" height="984.000000pt" viewBox="0 0 984.000000 984.000000"
 preserveAspectRatio="xMidYMid meet">
<metadata>
Created by potrace 1.11, written by Peter Selinger 2001-2013
</metadata>
<g transform="translate(0.000000,984.000000) scale(0.100000,-0.100000)"
fill="#000000" stroke="none">
<path d="M8095 7440 c3 -5 8 -10 11 -10 2 0 4 5 4 10 0 6 -5 10 -11 10 -5 0
-7 -4 -4 -10z"/>
<path d="M8356 7363 c-1 -1 -31 -4 -66 -8 -36 -3 -80 -7 -97 -10 -18 -3 -45
-7 -60 -9 -16 -2 -40 -8 -54 -14 -19 -8 -30 -7 -39 1 -9 8 -11 8 -7 1 6 -10
-4 -15 -71 -30 -8 -1 -28 -9 -45 -17 -18 -9 -39 -17 -47 -19 -8 -2 -21 -9 -28
-16 -8 -7 -18 -9 -24 -6 -7 4 -8 2 -4 -4 4 -7 -3 -17 -18 -24 -14 -6 -26 -15
-26 -20 0 -5 -5 -6 -10 -3 -6 4 -9 3 -8 -2 1 -4 -3 -17 -9 -28 -15 -26 -55
-171 -56 -202 0 -7 -3 -13 -6 -13 -3 0 -7 -10 -8 -23 -2 -24 -10 -62 -13 -62
-1 0 -4 -16 -7 -35 -2 -19 -8 -39 -13 -45 -4 -5 -6 -18 -5 -27 2 -10 0 -18 -5
-18 -5 0 -7 -8 -6 -17 2 -10 -2 -37 -9 -60 -7 -23 -10 -44 -7 -47 3 -4 0 -6
-7 -6 -7 0 -10 -4 -7 -8 3 -5 -1 -21 -9 -36 -8 -16 -10 -24 -3 -20 8 5 9 1 4
-12 -4 -10 -11 -37 -16 -59 -5 -22 -11 -50 -14 -62 -10 -39 -19 -78 -30 -138
-1 -5 -5 -16 -9 -22 -5 -7 -6 -13 -3 -13 2 0 0 -15 -5 -32 -5 -18 -12 -49 -15
-68 -8 -44 -10 -52 -17 -70 -4 -8 -8 -26 -9 -40 -2 -14 -6 -29 -9 -35 -3 -5
-6 -26 -8 -45 -2 -19 -6 -37 -10 -40 -3 -3 -7 -18 -8 -34 -1 -16 -8 -33 -14
-36 -8 -5 -8 -10 -1 -14 13 -8 4 -36 -17 -54 -9 -8 -11 -11 -4 -8 7 4 11 -1
10 -14 -1 -11 -4 -20 -7 -20 -4 0 -7 -6 -8 -12 0 -7 -3 -24 -5 -38 -3 -14 -8
-43 -11 -65 -4 -22 -10 -47 -13 -55 -3 -8 -8 -24 -9 -35 -16 -94 -26 -125 -38
-118 -7 4 -7 1 1 -7 8 -9 9 -19 2 -31 -5 -10 -9 -22 -8 -26 1 -4 0 -10 -1 -13
-2 -7 -11 -43 -14 -60 -1 -8 -6 -31 -11 -50 -5 -19 -10 -38 -11 -42 -1 -5 -2
-17 -3 -29 0 -12 -5 -17 -12 -13 -6 3 -9 14 -6 23 2 9 -2 22 -10 29 -7 7 -13
28 -13 46 0 18 -3 36 -7 40 -5 4 -9 12 -9 17 -1 5 -2 10 -4 12 -1 1 -3 11 -5
22 -5 26 -13 60 -15 60 -1 0 -3 7 -5 16 -1 9 -11 43 -20 75 -9 33 -18 66 -20
74 -10 48 -29 117 -37 133 -6 12 -5 17 4 17 10 0 10 2 0 9 -7 4 -15 19 -17 32
-1 13 -10 53 -19 89 -18 69 -23 91 -30 128 -3 12 -8 27 -11 32 -3 6 0 10 7 10
9 0 10 2 1 8 -6 4 -14 27 -18 52 -3 25 -8 52 -10 60 -2 8 -7 31 -10 50 -3 19
-7 46 -10 60 -3 14 -7 41 -10 60 -3 19 -8 46 -10 60 -3 14 -8 41 -11 60 -7 45
-10 62 -23 135 -9 53 -16 101 -26 170 -2 11 -6 34 -8 50 -10 55 -20 120 -23
145 -2 14 -6 48 -9 75 -4 28 -8 59 -10 70 -2 11 -4 28 -4 38 -1 16 -11 18 -78
17 -43 0 -400 1 -794 2 -393 1 -721 -2 -727 -6 -7 -4 -12 -4 -12 1 0 10 -942
9 -958 -1 -6 -3 -13 -3 -16 2 -4 7 -88 8 -186 1 -19 -1 -39 -1 -45 1 -5 1 -27
2 -47 1 l-37 -1 11 -32 c6 -18 14 -37 19 -42 4 -5 5 -15 2 -22 -3 -8 0 -14 6
-14 6 0 11 -8 11 -18 0 -11 7 -33 16 -51 9 -17 13 -39 10 -47 -3 -8 -2 -13 3
-10 6 4 31 -53 37 -84 0 -3 6 -18 13 -35 7 -16 15 -42 18 -57 3 -16 10 -28 15
-28 5 0 7 -4 3 -9 -3 -5 -1 -12 5 -16 6 -4 8 -10 5 -15 -3 -5 -1 -12 5 -15 8
-5 7 -12 -2 -23 -8 -10 -9 -13 -1 -9 7 5 18 -11 31 -45 17 -47 34 -94 37 -108
1 -3 5 -14 10 -25 42 -101 62 -165 52 -165 -7 0 -6 -4 2 -9 17 -11 43 -90 34
-104 -3 -6 -1 -7 5 -3 7 4 12 2 12 -3 0 -21 2 -26 13 -40 10 -12 8 -13 -10 -9
-16 4 -20 2 -16 -10 4 -9 2 -13 -4 -9 -5 3 -10 0 -10 -8 0 -10 4 -12 12 -5 7
5 16 6 20 2 5 -4 5 -1 1 6 -4 6 -3 12 2 12 15 0 31 -45 21 -62 -7 -12 -4 -15
9 -14 11 1 16 -5 14 -16 -2 -10 2 -18 8 -18 6 0 8 -4 5 -10 -3 -5 3 -29 14
-52 10 -24 24 -62 30 -85 6 -23 16 -45 21 -48 5 -3 7 -12 3 -20 -3 -8 1 -15 8
-15 7 0 10 -3 6 -6 -3 -4 0 -19 9 -35 9 -19 11 -29 4 -29 -6 0 -4 -7 4 -16 9
-8 14 -20 11 -25 -4 -5 -1 -9 5 -9 6 0 9 -4 6 -8 -3 -4 -1 -25 4 -45 5 -23 4
-37 -2 -37 -5 0 -6 -4 -3 -10 3 -5 2 -10 -4 -10 -6 0 -7 -7 -4 -17 5 -12 3
-14 -8 -8 -12 8 -12 6 0 -8 11 -14 11 -17 0 -18 -8 -1 -18 -1 -24 1 -5 1 -5
-4 2 -11 8 -8 9 -18 2 -31 -5 -10 -7 -22 -5 -27 3 -5 -1 -12 -9 -15 -8 -3 -14
-9 -13 -13 1 -4 -4 -19 -12 -33 -14 -25 -20 -44 -22 -67 -1 -7 -5 -10 -10 -7
-4 3 -8 -4 -8 -15 0 -12 -4 -21 -10 -21 -5 0 -10 -7 -10 -15 0 -19 -89 -199
-101 -203 -5 -2 -9 -8 -9 -14 0 -13 -32 -82 -41 -88 -4 -3 -9 -12 -11 -19 -2
-8 -10 -23 -18 -33 -8 -10 -15 -24 -15 -31 -1 -7 -6 -11 -12 -10 -6 1 -10 -3
-9 -10 2 -23 -57 -127 -68 -120 -6 4 -4 -2 4 -12 8 -10 11 -16 5 -13 -5 3 -16
0 -23 -8 -7 -8 -8 -14 -2 -14 5 0 1 -9 -10 -20 -11 -11 -20 -27 -20 -35 0 -8
-4 -15 -8 -15 -8 0 -36 -60 -33 -72 0 -5 -3 -8 -8 -8 -9 0 -47 -71 -42 -79 2
-2 -4 -8 -13 -13 -9 -5 -14 -13 -11 -19 9 -13 -4 -11 -19 4 -6 6 -12 21 -13
32 -2 30 -7 49 -15 55 -4 3 -9 17 -11 30 -11 60 -20 90 -29 90 -5 0 -8 6 -5
13 2 6 -4 32 -13 57 -10 25 -18 47 -18 50 0 3 -3 12 -5 20 -7 20 -31 114 -32
120 0 3 -6 14 -12 25 -6 11 -11 23 -11 28 -1 16 -15 72 -20 82 -4 6 -8 15 -9
20 -19 78 -26 101 -35 112 -8 10 -7 13 3 13 9 0 10 3 3 8 -10 6 -33 65 -38 95
-1 7 -6 18 -10 26 -7 11 -6 12 5 6 11 -7 11 -6 -1 9 -8 10 -15 23 -16 30 -10
45 -14 59 -23 70 -5 6 -9 13 -9 16 3 16 -14 80 -21 80 -4 0 -6 14 -3 30 3 19
0 30 -8 30 -7 0 -10 8 -7 20 3 11 0 26 -6 33 -11 11 -14 25 -20 89 -1 14 -5
24 -8 23 -3 -2 -11 19 -18 48 -7 29 -22 79 -32 111 -10 33 -17 62 -14 64 3 3
-3 14 -12 25 -10 11 -12 17 -5 13 14 -8 16 6 3 20 -10 9 -21 52 -24 89 -1 11
-5 22 -9 25 -4 3 -8 17 -10 30 -2 14 -6 30 -10 35 -7 12 -23 96 -20 108 1 4
-3 7 -10 7 -6 0 -9 3 -6 6 4 3 -2 34 -11 70 -10 35 -16 65 -14 68 10 9 -34 23
-69 22 -21 -1 -38 2 -38 7 0 4 -9 3 -19 -3 -16 -8 -23 -6 -33 7 -11 16 -38 20
-73 13 -5 -1 -14 -1 -20 0 -31 6 -175 4 -175 -3 0 -4 -10 -2 -22 4 -27 15 -28
15 -39 -3 -5 -7 -9 -8 -9 -3 0 6 -22 9 -56 7 -43 -2 -54 0 -48 10 6 10 5 10
-7 1 -12 -10 -86 -18 -114 -13 -5 1 -27 1 -49 0 -29 -1 -36 1 -30 12 6 10 5
11 -8 1 -8 -7 -29 -11 -46 -9 -17 2 -33 -2 -36 -8 -3 -7 -5 -7 -5 -1 -1 7 -16
9 -37 7 -29 -4 -35 -2 -28 9 6 12 5 12 -8 1 -10 -8 -30 -11 -47 -9 -17 3 -32
0 -35 -6 -2 -7 -5 -7 -5 -2 -1 6 -26 9 -63 7 -35 -2 -70 -3 -78 -3 -159 1
-171 2 -164 14 6 9 4 9 -7 1 -9 -8 -63 -12 -149 -12 -74 0 -139 -1 -145 -2 -5
-1 -32 -2 -58 -1 -36 1 -46 4 -41 14 6 9 3 8 -8 -1 -10 -8 -30 -11 -47 -9 -17
3 -32 0 -35 -6 -2 -7 -5 -7 -5 -2 -1 9 -214 13 -246 5 -5 -1 -12 -2 -15 -1
-17 6 -200 5 -200 -1 0 -4 -7 -5 -14 -2 -23 9 -136 10 -136 1 0 -4 -9 -3 -19
3 -11 5 -22 6 -25 2 -3 -5 -25 -6 -48 -3 -51 7 -88 3 -88 -10 0 -5 9 -28 20
-49 11 -22 18 -40 14 -40 -4 0 0 -7 7 -16 8 -9 14 -22 14 -28 0 -6 8 -27 16
-46 20 -44 39 -102 38 -114 0 -5 6 -13 14 -18 9 -4 14 -19 13 -33 -2 -13 1
-22 5 -19 8 5 11 -3 8 -22 0 -4 3 -10 8 -13 7 -5 30 -58 37 -86 1 -5 10 -27
19 -49 9 -21 17 -42 17 -45 0 -4 9 -26 20 -49 11 -22 20 -48 20 -57 0 -8 4
-15 9 -15 5 0 12 -16 15 -35 4 -19 12 -40 19 -47 11 -11 14 -22 20 -63 1 -5 6
-13 10 -16 5 -4 10 -18 10 -32 1 -14 5 -23 8 -21 6 3 18 -28 23 -56 1 -3 9
-22 20 -44 10 -21 19 -44 20 -50 1 -6 5 -17 9 -23 5 -7 5 -13 0 -13 -4 0 -3
-4 3 -8 6 -4 28 -51 48 -106 20 -54 43 -110 50 -125 8 -14 16 -37 17 -51 2
-14 10 -31 17 -39 7 -7 11 -20 8 -27 -3 -8 -1 -14 5 -14 6 0 9 -7 5 -15 -3 -8
-1 -15 4 -15 7 0 21 -28 25 -50 0 -3 18 -50 40 -104 21 -55 38 -105 38 -113 0
-7 4 -13 9 -13 4 0 8 -8 8 -18 0 -10 4 -22 9 -27 7 -8 31 -72 36 -95 1 -3 9
-22 18 -44 9 -21 17 -44 17 -50 0 -7 5 -17 11 -23 6 -6 11 -17 13 -24 3 -20
16 -61 26 -84 4 -11 12 -29 16 -40 7 -19 8 -24 15 -55 2 -8 7 -18 12 -21 4 -3
9 -15 12 -27 2 -12 10 -36 18 -54 21 -47 29 -70 34 -92 2 -11 8 -25 14 -32 5
-6 11 -25 12 -42 1 -16 5 -28 9 -25 5 2 8 -4 8 -14 0 -11 6 -25 13 -32 10 -11
9 -12 -2 -6 -9 5 -8 0 3 -18 9 -13 18 -33 21 -43 2 -11 15 -53 29 -94 13 -41
22 -78 19 -84 -3 -5 -1 -6 5 -2 7 4 13 1 13 -8 2 -19 4 -26 13 -48 4 -9 9 -22
10 -30 2 -7 6 -21 10 -30 4 -9 9 -25 11 -35 2 -10 4 -18 5 -18 3 0 12 -39 13
-57 1 -9 3 -15 6 -13 4 5 47 -116 53 -150 1 -11 7 -23 11 -26 4 -3 9 -16 10
-27 1 -12 5 -22 10 -22 4 0 6 -4 3 -8 -3 -5 2 -21 10 -36 7 -16 14 -36 14 -45
0 -10 3 -21 7 -25 5 -4 9 -12 9 -17 1 -5 3 -11 4 -14 1 -3 3 -8 5 -12 14 -52
19 -63 28 -63 6 0 2 -7 -9 -15 -10 -8 -13 -14 -6 -13 10 2 39 -51 49 -92 3
-10 15 -46 28 -81 8 -20 11 -39 8 -43 -4 -3 -1 -6 6 -6 7 0 10 -4 7 -8 -3 -5
1 -20 9 -35 10 -20 11 -27 2 -27 -8 0 -9 -3 -1 -8 12 -8 25 -37 31 -66 2 -11
8 -25 14 -33 9 -10 8 -13 -2 -13 -9 0 -10 -3 -4 -8 15 -10 46 -93 39 -103 -3
-5 0 -9 6 -9 7 0 10 -7 6 -15 -3 -8 -1 -15 3 -15 5 0 12 -7 15 -16 3 -8 2 -13
-2 -10 -5 3 -9 -1 -9 -9 0 -8 4 -12 8 -10 4 3 13 -17 20 -45 7 -27 16 -50 19
-50 4 0 7 -6 8 -12 1 -26 12 -62 19 -67 5 -3 8 -15 8 -26 -1 -11 2 -27 6 -35
9 -19 41 -103 41 -110 1 -7 9 -32 18 -55 7 -19 84 -255 86 -265 0 -3 4 -13 8
-22 4 -9 5 -22 2 -27 -4 -6 4 -16 16 -24 19 -12 139 -14 728 -12 388 2 711 3
718 4 6 0 12 10 12 21 0 12 7 34 15 50 9 17 12 30 8 30 -4 0 -2 5 5 12 7 7 12
22 12 34 0 12 4 24 10 26 5 2 11 12 13 23 2 11 10 34 17 50 7 17 15 39 17 49
2 11 8 25 14 33 6 7 9 13 5 13 -3 0 3 23 14 50 11 28 17 50 13 50 -3 0 2 9 13
21 10 12 18 24 17 28 -3 9 9 54 17 66 4 6 10 19 13 30 3 11 17 50 30 87 14 36
23 69 19 72 -3 3 0 6 6 6 6 0 14 14 17 32 4 18 16 53 27 78 11 25 20 53 21 62
1 9 5 14 9 12 7 -5 12 21 6 29 -2 2 5 15 15 30 9 15 15 27 11 27 -4 0 -1 7 6
15 7 8 9 15 6 15 -4 0 -1 10 6 23 6 12 13 29 14 37 3 13 15 44 54 135 9 22 20
52 23 66 4 14 14 43 24 65 9 21 17 41 18 44 1 3 5 17 9 33 5 15 13 27 19 27 6
0 8 3 4 6 -3 3 5 35 19 70 13 35 20 64 16 64 -4 0 -1 4 7 9 8 5 16 18 17 29 2
11 9 32 15 48 7 16 13 32 14 37 2 4 4 10 5 15 1 4 2 10 1 15 0 4 4 7 9 7 5 0
9 3 8 8 -3 11 22 84 38 110 8 12 12 22 8 22 -4 0 0 8 7 17 12 15 12 16 -1 8
-10 -6 -9 -2 3 12 10 11 19 30 20 42 1 11 4 21 7 21 3 0 12 20 19 45 7 25 16
43 20 41 4 -3 7 5 7 17 0 20 22 79 43 117 4 8 7 23 5 33 -1 9 2 17 7 17 5 0 9
5 9 12 0 6 8 20 18 31 9 11 11 17 4 13 -13 -7 -6 11 25 73 7 14 10 28 7 33 -3
4 0 8 6 8 6 0 8 4 5 10 -3 6 -1 10 5 10 6 0 9 4 5 9 -3 5 -1 12 4 15 5 4 8 17
7 30 -2 16 1 23 10 19 8 -3 11 2 10 14 -2 10 1 24 7 31 6 8 12 23 14 35 2 11
8 26 14 33 6 7 8 18 4 24 -3 5 2 10 12 10 11 0 14 3 7 8 -8 5 -7 17 3 41 11
27 17 31 23 20 6 -8 5 -15 -1 -18 -5 -1 -2 -10 8 -18 17 -13 16 -14 -7 -8 -24
6 -24 5 3 -10 21 -12 26 -21 21 -37 -4 -15 -3 -18 7 -13 9 6 11 2 7 -13 -4
-12 -2 -22 4 -22 5 0 6 -4 3 -10 -3 -5 -2 -10 3 -10 5 0 12 -11 14 -25 6 -28
4 -29 -21 -16 -13 7 -18 6 -18 -4 0 -8 7 -11 16 -7 13 5 14 3 4 -9 -10 -13
-10 -16 2 -16 8 0 11 5 8 10 -3 5 0 8 8 5 8 -3 16 -15 17 -29 2 -13 9 -30 15
-38 10 -12 9 -13 -3 -6 -11 6 -10 3 2 -12 10 -11 18 -26 18 -33 0 -9 -4 -8
-13 4 -12 16 -14 16 -14 2 0 -8 9 -18 19 -22 15 -4 24 -29 19 -56 0 -5 4 -8 9
-8 6 0 10 -7 10 -15 0 -9 7 -30 16 -47 9 -16 11 -27 5 -24 -6 4 -11 2 -11 -3
0 -6 5 -11 11 -11 6 0 8 -7 5 -16 -3 -8 -2 -12 4 -9 8 5 13 -15 9 -41 0 -4 5
-11 13 -15 10 -7 11 -12 1 -28 -11 -17 -10 -19 2 -15 8 4 15 2 16 -2 3 -34 11
-69 17 -74 13 -9 13 -41 1 -56 -10 -12 -9 -13 5 -8 16 6 23 -4 29 -41 1 -11 5
-24 8 -30 5 -9 15 -42 25 -80 1 -5 3 -17 5 -25 2 -8 7 -17 11 -20 4 -3 8 -17
10 -32 2 -15 7 -30 11 -34 10 -10 9 -26 -1 -20 -5 3 -9 -1 -9 -8 0 -8 6 -12
12 -9 14 5 29 -42 19 -59 -4 -6 -3 -8 2 -5 12 7 48 -109 38 -125 -5 -7 -3 -8
6 -3 10 6 12 3 8 -13 -4 -12 -2 -20 3 -16 5 3 9 -2 9 -10 0 -8 5 -27 11 -43 6
-15 10 -30 11 -33 0 -3 6 -20 13 -37 12 -29 12 -34 -3 -43 -15 -10 -15 -10 2
-8 11 2 20 -4 22 -14 7 -31 11 -45 34 -103 4 -11 12 -36 18 -55 6 -19 23 -75
38 -125 14 -49 29 -94 33 -100 3 -5 6 -19 6 -30 0 -11 5 -27 10 -35 5 -8 11
-19 12 -25 14 -59 22 -84 32 -104 7 -12 10 -25 8 -28 -3 -2 1 -16 9 -31 10
-20 11 -29 1 -41 -9 -11 -9 -13 0 -8 14 9 22 -3 25 -37 1 -14 5 -26 8 -26 4 0
12 -24 19 -53 8 -28 16 -56 20 -62 3 -5 7 -21 9 -35 2 -13 7 -29 11 -35 7 -8
22 -59 26 -85 0 -3 5 -18 12 -35 6 -16 21 -64 33 -105 12 -41 26 -84 30 -95 9
-20 23 -65 25 -75 2 -16 19 -31 31 -26 7 3 16 1 19 -4 4 -7 13 -7 24 0 10 5
21 7 24 4 3 -3 43 -5 89 -4 45 1 90 1 98 1 79 -4 160 -2 169 3 6 4 11 4 11 -1
0 -6 136 -8 225 -2 11 0 58 0 105 -1 47 -1 90 -1 95 0 6 1 15 2 20 1 6 -1 66
-2 135 -1 69 1 202 1 296 1 l172 0 18 62 c10 34 18 64 19 67 0 3 3 10 6 15 4
6 10 26 15 45 11 49 10 48 33 120 31 104 112 374 115 385 4 20 48 163 87 286
22 69 41 135 44 147 2 12 7 28 12 35 4 6 9 19 10 27 2 16 159 484 187 560 10
25 18 50 20 55 2 6 8 24 15 40 6 17 24 62 38 100 28 76 86 222 108 270 7 17
27 64 45 105 39 90 78 176 114 249 14 30 26 60 26 67 0 7 4 14 8 16 4 2 21 30
37 63 40 80 147 276 219 399 32 55 67 123 78 150 25 65 56 203 65 297 10 96 9
509 0 664 -4 66 -9 149 -11 185 -3 36 -8 115 -12 175 -9 143 -10 425 -1 493
22 169 61 213 207 236 35 6 73 13 120 22 32 6 94 14 145 19 22 2 40 4 40 5 0
2 35 6 105 14 30 3 66 8 80 11 14 2 52 7 85 10 33 3 86 8 119 11 32 4 72 7 90
8 39 3 38 18 -11 94 -42 65 -136 161 -197 200 -88 56 -92 59 -211 112 -98 44
-255 79 -425 96 -58 6 -439 12 -444 7z"/>
<path d="M7555 7241 c-3 -5 -2 -12 3 -15 5 -3 9 1 9 9 0 17 -3 19 -12 6z"/>
<path d="M7513 7205 c0 -8 4 -12 9 -9 5 3 6 10 3 15 -9 13 -12 11 -12 -6z"/>
<path d="M4089 7123 c-13 -16 -12 -17 4 -4 9 7 17 15 17 17 0 8 -8 3 -21 -13z"/>
<path d="M7469 6883 c-13 -16 -12 -17 4 -4 9 7 17 15 17 17 0 8 -8 3 -21 -13z"/>
<path d="M7427 6839 c7 -7 15 -10 18 -7 3 3 -2 9 -12 12 -14 6 -15 5 -6 -5z"/>
<path d="M4090 6620 c0 -5 5 -10 11 -10 5 0 7 5 4 10 -3 6 -8 10 -11 10 -2 0
-4 -4 -4 -10z"/>
<path d="M4006 6578 c3 -5 10 -6 15 -3 13 9 11 12 -6 12 -8 0 -12 -4 -9 -9z"/>
<path d="M4055 6580 c-3 -5 -1 -10 4 -10 6 0 11 5 11 10 0 6 -2 10 -4 10 -3 0
-8 -4 -11 -10z"/>
<path d="M3970 6560 c0 -5 5 -10 11 -10 5 0 7 5 4 10 -3 6 -8 10 -11 10 -2 0
-4 -4 -4 -10z"/>
<path d="M2593 6525 c0 -8 4 -12 9 -9 5 3 6 10 3 15 -9 13 -12 11 -12 -6z"/>
<path d="M4070 6536 c0 -2 8 -10 18 -17 15 -13 16 -12 3 4 -13 16 -21 21 -21
13z"/>
<path d="M2190 6519 c0 -5 5 -7 10 -4 6 3 10 8 10 11 0 2 -4 4 -10 4 -5 0 -10
-5 -10 -11z"/>
<path d="M2676 6473 c-6 -14 -5 -15 5 -6 7 7 10 15 7 18 -3 3 -9 -2 -12 -12z"/>
<path d="M4156 6482 c-3 -5 1 -9 9 -9 8 0 12 4 9 9 -3 4 -7 8 -9 8 -2 0 -6 -4
-9 -8z"/>
<path d="M3993 6445 c0 -8 4 -15 9 -15 4 0 8 4 8 9 0 6 -4 12 -8 15 -5 3 -9
-1 -9 -9z"/>
<path d="M4036 6442 c-3 -5 1 -9 9 -9 8 0 12 4 9 9 -3 4 -7 8 -9 8 -2 0 -6 -4
-9 -8z"/>
<path d="M4170 6441 c0 -6 4 -13 10 -16 6 -3 7 1 4 9 -7 18 -14 21 -14 7z"/>
<path d="M4070 6426 c0 -2 7 -7 16 -10 8 -3 12 -2 9 4 -6 10 -25 14 -25 6z"/>
<path d="M4000 6400 c-9 -6 -10 -10 -3 -10 6 0 15 5 18 10 8 12 4 12 -15 0z"/>
<path d="M4127 6397 c3 -4 8 -6 11 -3 3 3 10 1 17 -4 8 -7 12 -6 12 3 0 7 -11
13 -23 13 -12 0 -20 -4 -17 -9z"/>
<path d="M7273 6395 c0 -8 4 -12 9 -9 5 3 6 10 3 15 -9 13 -12 11 -12 -6z"/>
<path d="M7436 6398 c3 -5 10 -6 15 -3 13 9 11 12 -6 12 -8 0 -12 -4 -9 -9z"/>
<path d="M4195 6370 c21 -24 26 -25 19 -6 -3 8 -13 17 -22 21 -13 5 -13 2 3
-15z"/>
<path d="M4036 6362 c-3 -5 1 -9 9 -9 8 0 12 4 9 9 -3 4 -7 8 -9 8 -2 0 -6 -4
-9 -8z"/>
<path d="M3955 6340 c3 -5 8 -10 11 -10 2 0 4 5 4 10 0 6 -5 10 -11 10 -5 0
-7 -4 -4 -10z"/>
<path d="M4179 6338 c-5 -18 -6 -38 -1 -34 7 8 12 36 6 36 -2 0 -4 -1 -5 -2z"/>
<path d="M4219 6328 c7 -9 9 -23 5 -30 -6 -10 -4 -11 7 0 11 10 10 15 -6 30
-17 15 -18 15 -6 0z"/>
<path d="M4116 6319 c4 -8 30 -6 38 2 3 3 -5 5 -19 5 -13 0 -22 -3 -19 -7z"/>
<path d="M4055 6300 c3 -5 8 -10 11 -10 2 0 4 5 4 10 0 6 -5 10 -11 10 -5 0
-7 -4 -4 -10z"/>
<path d="M4195 6290 c-4 -6 -10 -8 -14 -6 -4 3 -8 -1 -8 -9 0 -13 4 -12 19 2
18 16 22 23 14 23 -3 0 -8 -5 -11 -10z"/>
<path d="M4014 6276 c1 -8 5 -18 8 -22 4 -3 5 1 4 10 -1 8 -5 18 -8 22 -4 3
-5 -1 -4 -10z"/>
<path d="M4236 6271 c-3 -5 1 -11 9 -14 9 -4 12 -1 8 9 -6 16 -10 17 -17 5z"/>
<path d="M4115 6260 c-3 -5 -1 -10 4 -10 6 0 11 5 11 10 0 6 -2 10 -4 10 -3 0
-8 -4 -11 -10z"/>
<path d="M4199 6253 c-13 -16 -12 -17 4 -4 9 7 17 15 17 17 0 8 -8 3 -21 -13z"/>
<path d="M4215 6241 c-3 -5 -2 -12 3 -15 5 -3 9 1 9 9 0 17 -3 19 -12 6z"/>
<path d="M4180 6226 c0 -2 8 -10 18 -17 15 -13 16 -12 3 4 -13 16 -21 21 -21
13z"/>
<path d="M4200 6174 c-11 -12 -10 -18 5 -32 18 -16 18 -16 6 1 -11 14 -11 20
-1 32 7 8 10 15 7 15 -2 0 -10 -7 -17 -16z"/>
<path d="M4150 6162 c0 -5 7 -9 15 -9 8 0 12 4 9 9 -3 4 -9 8 -15 8 -5 0 -9
-4 -9 -8z"/>
<path d="M4006 6138 c3 -5 10 -6 15 -3 13 9 11 12 -6 12 -8 0 -12 -4 -9 -9z"/>
<path d="M4275 6120 c3 -5 8 -10 11 -10 2 0 4 5 4 10 0 6 -5 10 -11 10 -5 0
-7 -4 -4 -10z"/>
<path d="M7156 6118 c3 -5 10 -6 15 -3 13 9 11 12 -6 12 -8 0 -12 -4 -9 -9z"/>
<path d="M4214 6086 c1 -8 5 -18 8 -22 4 -3 5 1 4 10 -1 8 -5 18 -8 22 -4 3
-5 -1 -4 -10z"/>
<path d="M4244 6083 c4 -4 16 -8 28 -10 28 -4 18 6 -12 12 -12 2 -20 1 -16 -2z"/>
<path d="M3907 6039 c7 -7 15 -10 18 -7 3 3 -2 9 -12 12 -14 6 -15 5 -6 -5z"/>
<path d="M4011 6047 c2 -1 13 -9 24 -17 19 -14 19 -14 6 3 -7 9 -18 17 -24 17
-6 0 -8 -1 -6 -3z"/>
<path d="M4195 6039 c-3 -4 3 -6 12 -4 10 1 27 -5 38 -14 20 -16 20 -16 2 5
-17 21 -44 27 -52 13z"/>
<path d="M4090 6020 c0 -5 5 -10 11 -10 5 0 7 5 4 10 -3 6 -8 10 -11 10 -2 0
-4 -4 -4 -10z"/>
<path d="M4210 6016 c0 -2 8 -10 18 -17 15 -13 16 -12 3 4 -13 16 -21 21 -21
13z"/>
<path d="M4276 6007 c3 -10 9 -15 12 -12 3 3 0 11 -7 18 -10 9 -11 8 -5 -6z"/>
<path d="M4070 5979 c0 -5 5 -7 10 -4 6 3 10 8 10 11 0 2 -4 4 -10 4 -5 0 -10
-5 -10 -11z"/>
<path d="M4190 5986 c0 -2 7 -7 16 -10 8 -3 12 -2 9 4 -6 10 -25 14 -25 6z"/>
<path d="M4315 5960 c-3 -5 -1 -10 4 -10 6 0 11 5 11 10 0 6 -2 10 -4 10 -3 0
-8 -4 -11 -10z"/>
<path d="M4272 5947 c-8 -10 -6 -13 7 -13 11 0 17 6 14 13 -3 7 -6 13 -8 13
-1 0 -7 -6 -13 -13z"/>
<path d="M4355 5920 c6 -30 16 -40 12 -12 -2 12 -6 24 -10 28 -3 4 -4 -4 -2
-16z"/>
<path d="M4236 5898 c3 -5 10 -6 15 -3 13 9 11 12 -6 12 -8 0 -12 -4 -9 -9z"/>
<path d="M4273 5887 c-1 -11 -1 -18 0 -16 2 2 8 11 15 20 9 12 9 16 -1 16 -7
0 -14 -9 -14 -20z"/>
<path d="M4324 5890 c-12 -5 -26 -15 -30 -22 -6 -10 -4 -10 9 1 9 7 23 11 30
8 8 -3 14 1 14 9 0 8 -1 14 -1 13 -1 0 -11 -4 -22 -9z"/>
<path d="M7115 5889 c-4 -6 -5 -12 -2 -15 2 -3 7 2 10 11 7 17 1 20 -8 4z"/>
<path d="M3959 5858 c-5 -18 -6 -38 -1 -34 7 8 12 36 6 36 -2 0 -4 -1 -5 -2z"/>
<path d="M4359 5847 c8 -9 16 -15 19 -12 3 3 12 -1 21 -8 14 -11 14 -10 2 6
-8 9 -16 15 -19 12 -3 -3 -12 1 -21 8 -14 11 -14 10 -2 -6z"/>
<path d="M4293 5833 c0 -9 4 -10 14 -2 7 6 13 12 13 14 0 1 -6 2 -13 2 -8 0
-14 -6 -14 -14z"/>
<path d="M4115 5819 c-3 -4 2 -6 10 -5 21 3 28 13 10 13 -9 0 -18 -4 -20 -8z"/>
<path d="M4320 5815 c-7 -8 -9 -15 -5 -15 4 0 1 -8 -6 -17 -13 -16 -12 -17 4
-4 9 8 15 16 12 19 -3 3 0 11 6 19 6 7 9 13 6 13 -2 0 -10 -7 -17 -15z"/>
<path d="M4345 5799 c-4 -6 -5 -12 -2 -15 2 -3 7 2 10 11 7 17 1 20 -8 4z"/>
<path d="M4273 5785 c0 -8 4 -12 9 -9 5 3 6 10 3 15 -9 13 -12 11 -12 -6z"/>
<path d="M4175 5780 c-3 -5 -1 -10 4 -10 6 0 11 5 11 10 0 6 -2 10 -4 10 -3 0
-8 -4 -11 -10z"/>
<path d="M4373 5765 c0 -7 6 -11 14 -8 7 3 13 6 13 8 0 2 -6 5 -13 8 -8 3 -14
-1 -14 -8z"/>
<path d="M4126 5738 c3 -5 10 -6 15 -3 13 9 11 12 -6 12 -8 0 -12 -4 -9 -9z"/>
<path d="M4304 5742 c4 -3 14 -7 22 -8 9 -1 13 0 10 4 -4 3 -14 7 -22 8 -9 1
-13 0 -10 -4z"/>
<path d="M4390 5720 c0 -5 5 -10 10 -10 6 0 10 5 10 10 0 6 -4 10 -10 10 -5 0
-10 -4 -10 -10z"/>
<path d="M4174 5702 c4 -3 14 -7 22 -8 9 -1 13 0 10 4 -4 3 -14 7 -22 8 -9 1
-13 0 -10 -4z"/>
<path d="M4435 5700 c6 -10 4 -12 -7 -7 -12 4 -14 1 -11 -14 3 -11 6 -18 7
-17 1 2 7 10 14 20 10 12 10 18 1 24 -8 5 -9 3 -4 -6z"/>
<path d="M4334 5680 c0 -13 4 -16 10 -10 7 7 7 13 0 20 -6 6 -10 3 -10 -10z"/>
<path d="M4275 5671 c-3 -5 -2 -12 3 -15 5 -3 9 1 9 9 0 17 -3 19 -12 6z"/>
<path d="M4391 5667 c-8 -10 -7 -14 2 -14 8 0 14 6 14 14 0 7 -1 13 -2 13 -2
0 -8 -6 -14 -13z"/>
<path d="M4215 5660 c-3 -5 -1 -10 4 -10 6 0 11 5 11 10 0 6 -2 10 -4 10 -3 0
-8 -4 -11 -10z"/>
<path d="M4355 5650 c-4 -6 -11 -7 -17 -4 -7 4 -8 2 -4 -5 6 -9 11 -9 22 0 14
11 18 19 10 19 -3 0 -8 -5 -11 -10z"/>
<path d="M4394 5585 c1 -8 8 -21 16 -28 12 -10 12 -9 2 4 -6 9 -9 18 -6 21 3
3 1 9 -4 12 -6 3 -9 -1 -8 -9z"/>
<path d="M4430 5575 c12 -14 8 -39 -10 -61 -14 -17 -13 -18 1 -7 9 7 18 10 22
7 3 -3 4 2 3 13 -2 10 0 27 4 38 6 16 4 21 -11 21 -11 0 -15 -4 -9 -11z"/>
<path d="M4255 5540 c-3 -5 -1 -10 4 -10 6 0 11 5 11 10 0 6 -2 10 -4 10 -3 0
-8 -4 -11 -10z"/>
<path d="M4335 5519 c-3 -4 2 -6 10 -5 21 3 28 13 10 13 -9 0 -18 -4 -20 -8z"/>
<path d="M4468 5518 c5 -5 16 -8 23 -6 8 3 3 7 -10 11 -17 4 -21 3 -13 -5z"/>
<path d="M4255 5500 c3 -5 8 -10 11 -10 2 0 4 5 4 10 0 6 -5 10 -11 10 -5 0
-7 -4 -4 -10z"/>
<path d="M4295 5500 c3 -5 8 -10 11 -10 2 0 4 5 4 10 0 6 -5 10 -11 10 -5 0
-7 -4 -4 -10z"/>
<path d="M4369 5483 c-13 -16 -12 -17 4 -4 16 13 21 21 13 21 -2 0 -10 -8 -17
-17z"/>
<path d="M4435 5490 c-4 -6 -10 -8 -14 -6 -4 3 -8 -1 -8 -9 0 -13 4 -12 19 2
18 16 22 23 14 23 -3 0 -8 -5 -11 -10z"/>
<path d="M4468 5493 c7 -3 16 -2 19 1 4 3 -2 6 -13 5 -11 0 -14 -3 -6 -6z"/>
<path d="M4206 5462 c-3 -5 1 -9 9 -9 8 0 12 4 9 9 -3 4 -7 8 -9 8 -2 0 -6 -4
-9 -8z"/>
<path d="M4439 5453 c-13 -16 -12 -17 4 -4 9 7 17 15 17 17 0 8 -8 3 -21 -13z"/>
<path d="M4410 5441 c0 -6 4 -13 10 -16 6 -3 7 1 4 9 -7 18 -14 21 -14 7z"/>
<path d="M4246 5422 c-3 -5 1 -9 9 -9 8 0 12 4 9 9 -3 4 -7 8 -9 8 -2 0 -6 -4
-9 -8z"/>
<path d="M4315 5421 c-3 -5 -2 -12 3 -15 5 -3 9 1 9 9 0 17 -3 19 -12 6z"/>
<path d="M4390 5421 c0 -6 4 -13 10 -16 6 -3 7 1 4 9 -7 18 -14 21 -14 7z"/>
<path d="M4350 5401 c0 -6 4 -12 8 -15 5 -3 9 1 9 9 0 8 -4 15 -9 15 -4 0 -8
-4 -8 -9z"/>
<path d="M4433 5392 c-8 -14 -8 -19 1 -19 7 0 13 9 13 19 1 10 1 18 0 18 -1 0
-7 -8 -14 -18z"/>
<path d="M4385 5380 c-3 -6 1 -7 9 -4 18 7 21 14 7 14 -6 0 -13 -4 -16 -10z"/>
<path d="M4313 5365 c0 -8 4 -12 9 -9 5 3 6 10 3 15 -9 13 -12 11 -12 -6z"/>
<path d="M4259 5348 c-5 -18 -6 -38 -1 -34 7 8 12 36 6 36 -2 0 -4 -1 -5 -2z"/>
<path d="M4330 5340 c0 -5 5 -10 11 -10 5 0 7 5 4 10 -3 6 -8 10 -11 10 -2 0
-4 -4 -4 -10z"/>
<path d="M4410 5319 c0 -5 5 -7 10 -4 6 3 10 8 10 11 0 2 -4 4 -10 4 -5 0 -10
-5 -10 -11z"/>
<path d="M4330 5299 c0 -5 5 -7 10 -4 6 3 10 8 10 11 0 2 -4 4 -10 4 -5 0 -10
-5 -10 -11z"/>
<path d="M4294 5276 c1 -8 5 -18 8 -22 4 -3 5 1 4 10 -1 8 -5 18 -8 22 -4 3
-5 -1 -4 -10z"/>
<path d="M4330 5259 c0 -5 5 -7 10 -4 6 3 10 8 10 11 0 2 -4 4 -10 4 -5 0 -10
-5 -10 -11z"/>
<path d="M4273 5225 c0 -8 4 -12 9 -9 5 3 6 10 3 15 -9 13 -12 11 -12 -6z"/>
<path d="M4355 5220 c3 -5 8 -10 11 -10 2 0 4 5 4 10 0 6 -5 10 -11 10 -5 0
-7 -4 -4 -10z"/>
<path d="M4335 5180 c3 -5 8 -10 11 -10 2 0 4 5 4 10 0 6 -5 10 -11 10 -5 0
-7 -4 -4 -10z"/>
<path d="M4270 5145 c0 -7 30 -13 34 -7 3 4 -4 9 -15 9 -10 1 -19 0 -19 -2z"/>
<path d="M4926 4201 c-3 -5 1 -11 9 -14 9 -4 12 -1 8 9 -6 16 -10 17 -17 5z"/>
<path d="M4940 4129 c0 -5 -4 -7 -10 -4 -14 9 -12 -1 3 -13 10 -8 13 -6 14 9
1 10 0 19 -3 19 -2 0 -4 -5 -4 -11z"/>
<path d="M4900 4106 c0 -2 8 -10 18 -17 15 -13 16 -12 3 4 -13 16 -21 21 -21
13z"/>
<path d="M4947 4059 c7 -7 15 -10 18 -7 3 3 -2 9 -12 12 -14 6 -15 5 -6 -5z"/>
<path d="M4920 4046 c0 -2 8 -10 18 -17 15 -13 16 -12 3 4 -13 16 -21 21 -21
13z"/>
<path d="M4970 4016 c0 -2 8 -10 18 -17 15 -13 16 -12 3 4 -13 16 -21 21 -21
13z"/>
<path d="M4946 3978 c3 -5 10 -6 15 -3 13 9 11 12 -6 12 -8 0 -12 -4 -9 -9z"/>
<path d="M4970 3961 c0 -6 4 -13 10 -16 6 -3 7 1 4 9 -7 18 -14 21 -14 7z"/>
<path d="M4956 3927 c3 -10 9 -15 12 -12 3 3 0 11 -7 18 -10 9 -11 8 -5 -6z"/>
<path d="M4985 3922 c3 -3 19 -7 36 -8 17 -2 28 0 25 3 -3 3 -19 7 -36 8 -17
1 -28 0 -25 -3z"/>
<path d="M4850 3899 c0 -5 5 -7 10 -4 6 3 10 8 10 11 0 2 -4 4 -10 4 -5 0 -10
-5 -10 -11z"/>
<path d="M4890 3820 c0 -5 5 -10 11 -10 5 0 7 5 4 10 -3 6 -8 10 -11 10 -2 0
-4 -4 -4 -10z"/>
<path d="M5053 3805 c0 -8 3 -13 5 -10 3 3 10 0 17 -5 8 -7 12 -5 12 5 0 8 -3
13 -5 10 -3 -3 -10 0 -17 5 -8 7 -12 5 -12 -5z"/>
<path d="M4976 3802 c-3 -5 1 -9 9 -9 8 0 12 4 9 9 -3 4 -7 8 -9 8 -2 0 -6 -4
-9 -8z"/>
<path d="M5057 3770 c7 -8 20 -15 29 -16 9 -1 13 1 9 4 -4 4 -10 7 -13 7 -4 0
-14 4 -22 9 -12 7 -13 6 -3 -4z"/>
<path d="M4827 3759 c7 -7 15 -10 18 -7 3 3 -2 9 -12 12 -14 6 -15 5 -6 -5z"/>
<path d="M4930 3740 c0 -5 5 -10 11 -10 5 0 7 5 4 10 -3 6 -8 10 -11 10 -2 0
-4 -4 -4 -10z"/>
<path d="M5103 3722 c10 -10 14 -22 10 -27 -5 -4 -2 -5 5 -1 11 6 10 12 -4 27
-9 10 -19 19 -22 19 -3 0 2 -8 11 -18z"/>
<path d="M5073 3707 c0 -8 6 -14 14 -14 9 0 10 4 2 14 -6 7 -12 13 -14 13 -1
0 -2 -6 -2 -13z"/>
<path d="M4753 3675 c0 -8 4 -12 9 -9 5 3 6 10 3 15 -9 13 -12 11 -12 -6z"/>
<path d="M5046 3682 c-3 -5 1 -9 9 -9 8 0 12 4 9 9 -3 4 -7 8 -9 8 -2 0 -6 -4
-9 -8z"/>
<path d="M4926 3658 c3 -5 10 -6 15 -3 13 9 11 12 -6 12 -8 0 -12 -4 -9 -9z"/>
<path d="M5094 3640 c0 -13 4 -16 10 -10 7 7 7 13 0 20 -6 6 -10 3 -10 -10z"/>
<path d="M4976 3618 c3 -5 10 -6 15 -3 13 9 11 12 -6 12 -8 0 -12 -4 -9 -9z"/>
<path d="M5015 3620 c-3 -5 -1 -10 4 -10 6 0 11 5 11 10 0 6 -2 10 -4 10 -3 0
-8 -4 -11 -10z"/>
<path d="M5119 3613 c-13 -16 -12 -17 4 -4 9 7 17 15 17 17 0 8 -8 3 -21 -13z"/>
<path d="M5139 3593 c-13 -16 -12 -17 4 -4 9 7 17 15 17 17 0 8 -8 3 -21 -13z"/>
<path d="M5010 3540 c0 -5 5 -10 11 -10 5 0 7 5 4 10 -3 6 -8 10 -11 10 -2 0
-4 -4 -4 -10z"/>
<path d="M5146 3538 c3 -4 9 -8 15 -8 5 0 9 4 9 8 0 5 -7 9 -15 9 -8 0 -12 -4
-9 -9z"/>
<path d="M5030 3500 c0 -5 5 -10 11 -10 5 0 7 5 4 10 -3 6 -8 10 -11 10 -2 0
-4 -4 -4 -10z"/>
<path d="M5153 3465 c0 -8 4 -12 9 -9 5 3 6 10 3 15 -9 13 -12 11 -12 -6z"/>
<path d="M5067 3439 c7 -7 15 -10 18 -7 3 3 -2 9 -12 12 -14 6 -15 5 -6 -5z"/>
<path d="M5186 3402 c-2 -4 4 -8 14 -8 10 0 16 4 14 8 -3 4 -9 8 -14 8 -5 0
-11 -4 -14 -8z"/>
<path d="M5176 3367 c3 -10 9 -15 12 -12 3 3 0 11 -7 18 -10 9 -11 8 -5 -6z"/>
<path d="M5219 3353 c-13 -16 -12 -17 4 -4 9 7 17 15 17 17 0 8 -8 3 -21 -13z"/>
<path d="M5135 3300 c-3 -5 -1 -10 4 -10 6 0 11 5 11 10 0 6 -2 10 -4 10 -3 0
-8 -4 -11 -10z"/>
<path d="M5113 3254 c0 -9 4 -11 12 -4 7 5 14 9 16 7 2 -1 3 0 1 2 -7 11 -29
7 -29 -5z"/>
<path d="M5235 3220 c-3 -5 -1 -10 4 -10 6 0 11 5 11 10 0 6 -2 10 -4 10 -3 0
-8 -4 -11 -10z"/>
<path d="M5215 3180 c3 -5 8 -10 11 -10 2 0 4 5 4 10 0 6 -5 10 -11 10 -5 0
-7 -4 -4 -10z"/>
<path d="M5265 3160 c-3 -6 1 -7 9 -4 18 7 21 14 7 14 -6 0 -13 -4 -16 -10z"/>
<path d="M5214 3062 c4 -3 14 -7 22 -8 9 -1 13 0 10 4 -4 3 -14 7 -22 8 -9 1
-13 0 -10 -4z"/>
<path d="M5216 3002 c-3 -5 1 -9 9 -9 8 0 12 4 9 9 -3 4 -7 8 -9 8 -2 0 -6 -4
-9 -8z"/>
<path d="M5293 2855 c0 -8 4 -12 9 -9 5 3 6 10 3 15 -9 13 -12 11 -12 -6z"/>
<path d="M5370 2859 c0 -5 5 -7 10 -4 6 3 10 8 10 11 0 2 -4 4 -10 4 -5 0 -10
-5 -10 -11z"/>
<path d="M5186 2838 c3 -5 10 -6 15 -3 13 9 11 12 -6 12 -8 0 -12 -4 -9 -9z"/>
<path d="M5370 2780 c0 -5 5 -10 11 -10 5 0 7 5 4 10 -3 6 -8 10 -11 10 -2 0
-4 -4 -4 -10z"/>
<path d="M5395 2720 c3 -5 8 -10 11 -10 2 0 4 5 4 10 0 6 -5 10 -11 10 -5 0
-7 -4 -4 -10z"/>
<path d="M5371 2687 c2 -1 13 -9 24 -17 19 -14 19 -14 6 3 -7 9 -18 17 -24 17
-6 0 -8 -1 -6 -3z"/>
<path d="M5456 2562 c-3 -5 1 -9 9 -9 8 0 12 4 9 9 -3 4 -7 8 -9 8 -2 0 -6 -4
-9 -8z"/>
<path d="M5390 2366 c0 -2 7 -7 16 -10 8 -3 12 -2 9 4 -6 10 -25 14 -25 6z"/>
<path d="M5430 2216 c0 -2 8 -10 18 -17 15 -13 16 -12 3 4 -13 16 -21 21 -21
13z"/>
<path d="M5675 1851 c-3 -5 -2 -12 3 -15 5 -3 9 1 9 9 0 17 -3 19 -12 6z"/>
</g>
</svg>
